<svg xmlns="http://www.w3.org/2000/svg" width="96" height="96" fill="none" viewBox="0 0 96 96" id="bell"><path stroke="#000" stroke-width="5" d="M58 76C58 81.5228 53.299 86 47.5 86C41.701 86 37 81.5228 37 76"></path><path fill="#FFB800" stroke="#000" stroke-width="5" d="M24.7911 32.7089C24.7911 20.1671 34.9582 10 47.5 10V10V10C60.0418 10 70.2089 20.1671 70.2089 32.7089V43.4011C70.2089 46.6583 70.9406 49.8739 72.35 52.8103L78.1312 64.8557C80.3871 69.556 76.9614 75 71.7478 75H23.2522C18.0386 75 14.6129 69.556 16.8688 64.8557L22.65 52.8103C24.0594 49.8739 24.7911 46.6583 24.7911 43.4011V32.7089Z"></path></svg>