<svg xmlns="http://www.w3.org/2000/svg" xmlns:xlink="http://www.w3.org/1999/xlink" width="150" zoomAndPan="magnify" viewBox="0 0 224.87999 74.999997" height="70" preserveAspectRatio="xMidYMid meet" version="1.0"><defs><clipPath id="68acf59124"><path d="M 0 0.0195312 L 224.761719 0.0195312 L 224.761719 74.980469 L 0 74.980469 Z M 0 0.0195312 " clip-rule="nonzero"/></clipPath></defs><g clip-path="url(#68acf59124)"><path fill="#ffffff" d="M 0 0.0195312 L 224.878906 0.0195312 L 224.878906 74.980469 L 0 74.980469 Z M 0 0.0195312 " fill-opacity="1" fill-rule="nonzero"/><path fill="#ffffff" d="M 0 0.0195312 L 224.878906 0.0195312 L 224.878906 74.980469 L 0 74.980469 Z M 0 0.0195312 " fill-opacity="1" fill-rule="nonzero"/></g><path fill="#0bb4d1" d="M 65.699219 45.800781 C 64.003906 46.433594 62.160156 46.992188 60.203125 47.484375 C 59.175781 44.074219 57.820312 40.515625 56.171875 36.910156 C 57.820312 33.3125 59.175781 29.75 60.203125 26.339844 C 62.160156 26.832031 64.003906 27.390625 65.699219 28.019531 C 66.296875 28.242188 66.867188 28.46875 67.414062 28.703125 C 67.382812 28.910156 67.359375 29.125 67.359375 29.339844 C 67.359375 31.578125 69.175781 33.390625 71.414062 33.390625 C 72.316406 33.390625 73.144531 33.09375 73.820312 32.59375 C 75.289062 33.992188 76.070312 35.453125 76.070312 36.910156 C 76.070312 40.125 72.292969 43.367188 65.699219 45.800781 Z M 59.972656 55.554688 C 59.984375 55.628906 59.988281 55.699219 60.003906 55.769531 C 58.46875 56.347656 57.378906 57.828125 57.378906 59.558594 C 57.378906 61.375 58.566406 62.910156 60.210938 63.425781 C 59.820312 66.15625 58.816406 68.066406 57.25 68.941406 C 56.574219 69.320312 55.78125 69.511719 54.902344 69.511719 C 51.628906 69.511719 47.179688 66.960938 42.378906 62.339844 C 41.859375 61.839844 41.34375 61.316406 40.824219 60.78125 C 43.25 58.089844 45.671875 54.980469 47.996094 51.53125 C 51.789062 51.210938 55.410156 50.671875 58.761719 49.9375 C 59.28125 51.882812 59.691406 53.765625 59.972656 55.554688 Z M 36.429688 62.339844 C 31.625 66.960938 27.179688 69.511719 23.90625 69.511719 C 23.023438 69.511719 22.230469 69.320312 21.558594 68.941406 C 19.460938 67.773438 18.378906 64.753906 18.410156 60.410156 C 20.300781 60.058594 21.730469 58.410156 21.730469 56.421875 C 21.730469 54.789062 20.761719 53.382812 19.363281 52.742188 C 19.5625 51.824219 19.792969 50.890625 20.050781 49.9375 C 23.394531 50.671875 27.015625 51.210938 30.808594 51.53125 C 33.132812 54.980469 35.554688 58.089844 37.980469 60.78125 C 37.464844 61.316406 36.945312 61.839844 36.429688 62.339844 Z M 13.105469 45.800781 C 6.515625 43.367188 2.738281 40.125 2.738281 36.910156 C 2.738281 33.699219 6.515625 30.457031 13.105469 28.019531 C 14.804688 27.390625 16.652344 26.832031 18.601562 26.339844 C 19.628906 29.75 20.988281 33.3125 22.636719 36.910156 C 20.988281 40.515625 19.628906 44.074219 18.601562 47.484375 C 16.652344 46.992188 14.804688 46.433594 13.105469 45.800781 Z M 18.835938 18.269531 C 18.800781 18.03125 18.765625 17.796875 18.734375 17.5625 C 20.460938 17.09375 21.730469 15.527344 21.730469 13.652344 C 21.730469 11.773438 20.445312 10.199219 18.707031 9.734375 C 19.15625 7.363281 20.121094 5.6875 21.558594 4.882812 C 22.230469 4.507812 23.023438 4.316406 23.90625 4.316406 C 27.179688 4.316406 31.625 6.863281 36.429688 11.484375 C 36.945312 11.984375 37.464844 12.507812 37.980469 13.050781 C 35.554688 15.738281 33.132812 18.84375 30.808594 22.296875 C 27.015625 22.617188 23.394531 23.152344 20.050781 23.886719 C 19.523438 21.941406 19.117188 20.0625 18.835938 18.269531 Z M 52.488281 29.625 C 51.5 27.855469 50.480469 26.144531 49.441406 24.503906 C 52.511719 24.820312 55.445312 25.28125 58.1875 25.875 C 57.347656 28.644531 56.277344 31.527344 55.011719 34.449219 C 54.222656 32.84375 53.382812 31.230469 52.488281 29.625 Z M 33.460938 22.109375 C 35.382812 19.367188 37.382812 16.832031 39.402344 14.578125 C 41.421875 16.832031 43.425781 19.367188 45.347656 22.109375 C 43.398438 21.996094 41.414062 21.9375 39.402344 21.9375 C 37.394531 21.9375 35.40625 21.996094 33.460938 22.109375 Z M 23.796875 34.449219 C 22.527344 31.527344 21.460938 28.644531 20.617188 25.875 C 23.367188 25.28125 26.296875 24.820312 29.371094 24.503906 C 28.324219 26.144531 27.304688 27.855469 26.320312 29.625 C 25.425781 31.230469 24.585938 32.84375 23.792969 34.449219 Z M 29.371094 49.320312 C 26.296875 49.003906 23.367188 48.546875 20.617188 47.953125 C 21.460938 45.179688 22.527344 42.300781 23.796875 39.375 C 24.585938 40.984375 25.425781 42.597656 26.320312 44.203125 C 27.308594 45.972656 28.324219 47.679688 29.371094 49.320312 Z M 45.347656 51.71875 C 43.425781 54.457031 41.421875 56.996094 39.402344 59.25 C 37.382812 56.996094 35.382812 54.457031 33.460938 51.71875 C 35.40625 51.832031 37.394531 51.886719 39.402344 51.886719 C 41.414062 51.886719 43.398438 51.832031 45.347656 51.71875 Z M 55.011719 39.375 C 56.277344 42.300781 57.347656 45.179688 58.1875 47.953125 C 55.445312 48.546875 52.511719 49.003906 49.441406 49.320312 C 50.480469 47.679688 51.5 45.972656 52.488281 44.203125 C 53.382812 42.597656 54.222656 40.984375 55.011719 39.375 Z M 50.679688 43.199219 C 49.457031 45.386719 48.160156 47.515625 46.820312 49.550781 C 44.40625 49.734375 41.921875 49.824219 39.402344 49.824219 C 36.882812 49.824219 34.402344 49.734375 31.988281 49.550781 C 30.644531 47.515625 29.347656 45.386719 28.125 43.199219 C 26.964844 41.105469 25.882812 39.003906 24.910156 36.910156 C 25.882812 34.828125 26.964844 32.722656 28.125 30.628906 C 29.347656 28.4375 30.648438 26.308594 31.988281 24.277344 C 34.402344 24.097656 36.882812 24 39.402344 24 C 41.921875 24 44.40625 24.097656 46.820312 24.277344 C 48.160156 26.308594 49.457031 28.4375 50.679688 30.628906 C 51.847656 32.722656 52.921875 34.828125 53.898438 36.910156 C 52.921875 39.003906 51.847656 41.105469 50.679688 43.199219 Z M 42.378906 11.484375 C 47.179688 6.863281 51.628906 4.316406 54.90625 4.316406 C 55.78125 4.316406 56.574219 4.507812 57.25 4.882812 C 60.058594 6.449219 61.042969 11.324219 59.972656 18.269531 C 59.691406 20.0625 59.28125 21.941406 58.761719 23.886719 C 55.410156 23.152344 51.789062 22.617188 47.996094 22.296875 C 45.671875 18.84375 43.25 15.738281 40.824219 13.050781 C 41.34375 12.507812 41.859375 11.984375 42.378906 11.484375 Z M 75.117188 30.984375 C 75.34375 30.480469 75.46875 29.929688 75.46875 29.339844 C 75.46875 27.101562 73.652344 25.289062 71.414062 25.289062 C 70.132812 25.289062 68.988281 25.882812 68.246094 26.816406 C 67.664062 26.558594 67.050781 26.320312 66.417969 26.085938 C 64.667969 25.4375 62.777344 24.863281 60.765625 24.355469 C 61.304688 22.363281 61.722656 20.425781 62.011719 18.585938 C 63.25 10.625 61.917969 5.117188 58.253906 3.078125 C 57.265625 2.527344 56.136719 2.25 54.90625 2.25 C 50.554688 2.25 45.011719 5.703125 39.402344 11.523438 C 33.796875 5.703125 28.25 2.25 23.90625 2.25 C 22.671875 2.25 21.539062 2.527344 20.550781 3.078125 C 18.46875 4.242188 17.140625 6.523438 16.609375 9.746094 C 14.886719 10.214844 13.621094 11.785156 13.621094 13.652344 C 13.621094 15.539062 14.910156 17.117188 16.652344 17.574219 C 16.695312 17.902344 16.742188 18.242188 16.796875 18.585938 C 17.082031 20.425781 17.5 22.363281 18.039062 24.355469 C 16.03125 24.863281 14.140625 25.4375 12.390625 26.085938 C 4.835938 28.878906 0.671875 32.722656 0.671875 36.910156 C 0.671875 41.101562 4.835938 44.949219 12.390625 47.742188 C 14.140625 48.386719 16.03125 48.964844 18.039062 49.46875 C 17.773438 50.457031 17.53125 51.433594 17.328125 52.386719 C 15.25 52.566406 13.621094 54.304688 13.621094 56.421875 C 13.621094 58.199219 14.757812 59.703125 16.347656 60.253906 C 16.28125 65.511719 17.71875 69.171875 20.550781 70.75 C 21.539062 71.296875 22.671875 71.574219 23.90625 71.574219 C 28.25 71.574219 33.796875 68.117188 39.402344 62.304688 C 45.011719 68.117188 50.554688 71.574219 54.902344 71.574219 C 56.136719 71.574219 57.265625 71.296875 58.253906 70.75 C 60.457031 69.523438 61.8125 67.039062 62.28125 63.523438 C 64.109375 63.132812 65.488281 61.507812 65.488281 59.558594 C 65.488281 57.539062 64 55.863281 62.0625 55.5625 C 62.042969 55.457031 62.023438 55.351562 62.011719 55.238281 C 61.722656 53.398438 61.304688 51.460938 60.765625 49.46875 C 62.773438 48.964844 64.667969 48.386719 66.417969 47.742188 C 73.976562 44.949219 78.136719 41.101562 78.136719 36.910156 C 78.136719 34.820312 77.097656 32.8125 75.117188 30.984375 " fill-opacity="1" fill-rule="nonzero"/><path fill="#0bb4d1" d="M 39.402344 30.890625 C 36.078125 30.890625 33.378906 33.585938 33.378906 36.910156 C 33.378906 40.238281 36.078125 42.9375 39.402344 42.9375 C 42.734375 42.9375 45.425781 40.238281 45.425781 36.910156 C 45.425781 33.585938 42.734375 30.890625 39.402344 30.890625 " fill-opacity="1" fill-rule="nonzero"/><path fill="#000000" d="M 98.761719 45.992188 C 97.363281 45.992188 96.066406 45.746094 94.878906 45.257812 C 93.695312 44.765625 92.671875 44.078125 91.804688 43.199219 C 90.941406 42.3125 90.269531 41.265625 89.796875 40.054688 C 89.328125 38.847656 89.09375 37.523438 89.09375 36.085938 C 89.09375 34.644531 89.328125 33.320312 89.796875 32.109375 C 90.269531 30.898438 90.941406 29.855469 91.804688 28.972656 C 92.671875 28.085938 93.695312 27.402344 94.878906 26.914062 C 96.066406 26.417969 97.363281 26.171875 98.761719 26.171875 C 100.273438 26.171875 101.664062 26.449219 102.925781 27.003906 C 104.191406 27.558594 105.273438 28.34375 106.175781 29.375 C 107.074219 30.40625 107.734375 31.625 108.152344 33.023438 L 105.585938 33.023438 C 105.097656 31.636719 104.246094 30.546875 103.03125 29.757812 C 101.820312 28.96875 100.425781 28.570312 98.847656 28.570312 C 97.421875 28.570312 96.167969 28.890625 95.074219 29.53125 C 93.980469 30.164062 93.117188 31.046875 92.488281 32.179688 C 91.859375 33.308594 91.546875 34.609375 91.546875 36.085938 C 91.546875 37.558594 91.859375 38.859375 92.488281 39.992188 C 93.117188 41.121094 93.980469 42.003906 95.074219 42.640625 C 96.167969 43.273438 97.421875 43.589844 98.847656 43.589844 C 100.46875 43.589844 101.902344 43.171875 103.15625 42.332031 C 104.410156 41.496094 105.289062 40.359375 105.78125 38.921875 L 108.316406 38.921875 C 107.9375 40.34375 107.289062 41.585938 106.371094 42.640625 C 105.449219 43.691406 104.335938 44.515625 103.03125 45.105469 C 101.730469 45.695312 100.308594 45.992188 98.761719 45.992188 Z M 98.761719 45.992188 " fill-opacity="1" fill-rule="nonzero"/><path fill="#000000" d="M 122.082031 45.992188 C 120.152344 45.992188 118.4375 45.570312 116.941406 44.722656 C 115.449219 43.878906 114.285156 42.710938 113.445312 41.21875 C 112.613281 39.722656 112.199219 38.011719 112.199219 36.085938 C 112.199219 34.136719 112.613281 32.417969 113.445312 30.933594 C 114.285156 29.449219 115.449219 28.285156 116.941406 27.4375 C 118.4375 26.59375 120.152344 26.171875 122.082031 26.171875 C 124.035156 26.171875 125.746094 26.59375 127.226562 27.4375 C 128.710938 28.285156 129.875 29.449219 130.722656 30.933594 C 131.570312 32.417969 132 34.136719 132 36.085938 C 132 38.011719 131.570312 39.722656 130.722656 41.21875 C 129.875 42.710938 128.710938 43.878906 127.226562 44.722656 C 125.746094 45.570312 124.035156 45.992188 122.082031 45.992188 Z M 114.652344 36.085938 C 114.652344 37.558594 114.964844 38.859375 115.589844 39.992188 C 116.222656 41.121094 117.097656 42.003906 118.21875 42.640625 C 119.335938 43.273438 120.625 43.589844 122.082031 43.589844 C 123.558594 43.589844 124.851562 43.273438 125.960938 42.640625 C 127.074219 42.003906 127.941406 41.121094 128.566406 39.992188 C 129.199219 38.859375 129.515625 37.558594 129.515625 36.085938 C 129.515625 34.589844 129.199219 33.28125 128.566406 32.160156 C 127.941406 31.039062 127.074219 30.164062 125.960938 29.53125 C 124.851562 28.890625 123.558594 28.570312 122.082031 28.570312 C 120.625 28.570312 119.335938 28.890625 118.21875 29.53125 C 117.097656 30.164062 116.222656 31.039062 115.589844 32.160156 C 114.964844 33.28125 114.652344 34.589844 114.652344 36.085938 Z M 114.652344 36.085938 " fill-opacity="1" fill-rule="nonzero"/><path fill="#000000" d="M 137.152344 45.640625 L 137.152344 26.519531 L 139.554688 26.519531 L 139.554688 43.34375 L 148.84375 43.34375 L 148.84375 45.640625 Z M 137.152344 45.640625 " fill-opacity="1" fill-rule="nonzero"/><path fill="#000000" d="M 153.292969 45.640625 L 153.292969 26.519531 L 155.695312 26.519531 L 155.695312 43.34375 L 164.980469 43.34375 L 164.980469 45.640625 Z M 153.292969 45.640625 " fill-opacity="1" fill-rule="nonzero"/><path fill="#000000" d="M 167.113281 45.640625 L 174.980469 26.519531 L 177.226562 26.519531 L 185.089844 45.640625 L 182.542969 45.640625 L 180.742188 41.300781 L 171.433594 41.300781 L 169.679688 45.640625 Z M 172.359375 39.054688 L 179.84375 39.054688 L 176.101562 29.882812 Z M 172.359375 39.054688 " fill-opacity="1" fill-rule="nonzero"/><path fill="#000000" d="M 189.152344 45.640625 L 189.152344 26.519531 L 196.550781 26.519531 C 198.390625 26.519531 199.863281 26.980469 200.964844 27.902344 C 202.070312 28.824219 202.621094 30.054688 202.621094 31.601562 C 202.621094 32.53125 202.402344 33.351562 201.964844 34.066406 C 201.53125 34.773438 200.921875 35.328125 200.136719 35.726562 C 201.121094 36.125 201.871094 36.714844 202.386719 37.5 C 202.90625 38.28125 203.167969 39.214844 203.167969 40.292969 C 203.167969 41.949219 202.605469 43.253906 201.488281 44.207031 C 200.367188 45.164062 198.84375 45.640625 196.914062 45.640625 Z M 191.554688 43.402344 L 196.859375 43.402344 C 198.097656 43.402344 199.046875 43.125 199.707031 42.558594 C 200.371094 41.988281 200.707031 41.195312 200.707031 40.179688 C 200.707031 39.164062 200.367188 38.375 199.695312 37.816406 C 199.019531 37.261719 198.066406 36.984375 196.828125 36.984375 L 191.554688 36.984375 Z M 191.554688 34.796875 L 196.5 34.796875 C 197.679688 34.796875 198.585938 34.535156 199.210938 34.003906 C 199.84375 33.476562 200.160156 32.734375 200.160156 31.789062 C 200.160156 30.828125 199.839844 30.082031 199.199219 29.550781 C 198.566406 29.023438 197.667969 28.757812 196.5 28.757812 L 191.554688 28.757812 Z M 191.554688 34.796875 " fill-opacity="1" fill-rule="nonzero"/><path fill="#000000" d="M 208.296875 45.640625 L 208.296875 26.519531 L 215.695312 26.519531 C 217.535156 26.519531 219.007812 26.980469 220.105469 27.902344 C 221.210938 28.824219 221.765625 30.054688 221.765625 31.601562 C 221.765625 32.53125 221.542969 33.351562 221.105469 34.066406 C 220.675781 34.773438 220.066406 35.328125 219.28125 35.726562 C 220.265625 36.125 221.015625 36.714844 221.53125 37.5 C 222.050781 38.28125 222.3125 39.214844 222.3125 40.292969 C 222.3125 41.949219 221.75 43.253906 220.632812 44.207031 C 219.511719 45.164062 217.988281 45.640625 216.054688 45.640625 Z M 210.695312 43.402344 L 216.003906 43.402344 C 217.242188 43.402344 218.191406 43.125 218.847656 42.558594 C 219.515625 41.988281 219.847656 41.195312 219.847656 40.179688 C 219.847656 39.164062 219.511719 38.375 218.839844 37.816406 C 218.164062 37.261719 217.210938 36.984375 215.972656 36.984375 L 210.695312 36.984375 Z M 210.695312 34.796875 L 215.644531 34.796875 C 216.824219 34.796875 217.730469 34.535156 218.355469 34.003906 C 218.984375 33.476562 219.304688 32.734375 219.304688 31.789062 C 219.304688 30.828125 218.984375 30.082031 218.34375 29.550781 C 217.710938 29.023438 216.8125 28.757812 215.644531 28.757812 L 210.695312 28.757812 Z M 210.695312 34.796875 " fill-opacity="1" fill-rule="nonzero"/></svg>