<svg xmlns="http://www.w3.org/2000/svg" viewBox="0 0 14.932 24" id="question-mark"><path d="M10.0051,16.78852a.50131.50131,0,0,1-.49992-.51746,11.65875,11.65875,0,0,1,.22215-2.04835,6.32572,6.32572,0,0,1,.76236-1.97558,7.31422,7.31422,0,0,1,1.46741-1.70506A15.618,15.618,0,0,0,13.27692,9.296a5.64568,5.64568,0,0,0,.89351-1.23777,2.96049,2.96049,0,0,0,.32793-1.38544,2.81027,2.81027,0,0,0-.61488-1.9838,2.3884,2.3884,0,0,0-1.828-.65576,2.73558,2.73558,0,0,0-1.75426.63121,2.29278,2.29278,0,0,0-.77708,1.62007.50344.50344,0,0,1-.4978.4539H5.034a.502.502,0,0,1-.49889-.5382A6.531,6.531,0,0,1,5.55485,2.91828,5.99462,5.99462,0,0,1,8.26.71317,9.70673,9.70673,0,0,1,12.05549,0a8.19344,8.19344,0,0,1,5.45133,1.65587,5.9189,5.9189,0,0,1,1.95924,4.78736,5.39271,5.39271,0,0,1-.55746,2.51671,8.47522,8.47522,0,0,1-1.46741,2.00834q-.90984.9345-1.992,1.951a4.24061,4.24061,0,0,0-1.2542,1.70506,6.36462,6.36462,0,0,0-.3304,1.70219.49893.49893,0,0,1-.49816.46195Zm-1.03191,4.6046a2.511,2.511,0,0,1,.75414-1.86077,2.7421,2.7421,0,0,1,2.01666-.746,2.71448,2.71448,0,0,1,2.00834.746,2.68347,2.68347,0,0,1,0,3.71341A2.69741,2.69741,0,0,1,11.744,24a2.72474,2.72474,0,0,1-2.01666-.75424A2.51773,2.51773,0,0,1,8.97319,21.39312Z" transform="translate(-4.534)"></path></svg>