<?xml version="1.0" encoding="UTF-8" standalone="no"?>
<svg
   viewBox="0 0 14.932 24"
   id="question-mark"
   version="1.1"
   sodipodi:docname="question-mark (1).svg"
   inkscape:version="1.3.2 (091e20e, 2023-11-25, custom)"
   xmlns:inkscape="http://www.inkscape.org/namespaces/inkscape"
   xmlns:sodipodi="http://sodipodi.sourceforge.net/DTD/sodipodi-0.dtd"
   xmlns="http://www.w3.org/2000/svg"
   xmlns:svg="http://www.w3.org/2000/svg">
  <defs
     id="defs1" />
  <sodipodi:namedview
     id="namedview1"
     pagecolor="#ffffff"
     bordercolor="#666666"
     borderopacity="1.0"
     inkscape:showpageshadow="2"
     inkscape:pageopacity="0.0"
     inkscape:pagecheckerboard="0"
     inkscape:deskcolor="#d1d1d1"
     inkscape:zoom="20.875"
     inkscape:cx="7.4730539"
     inkscape:cy="12"
     inkscape:window-width="1366"
     inkscape:window-height="697"
     inkscape:window-x="-8"
     inkscape:window-y="-8"
     inkscape:window-maximized="1"
     inkscape:current-layer="question-mark" />
  <path
     d="M 5.9512241,14.961763 A 0.33900719,0.33900719 0 0 1 5.613157,14.611833 7.8841437,7.8841437 0 0 1 5.7633842,13.226652 4.2777214,4.2777214 0 0 1 6.2789246,11.890681 4.9461873,4.9461873 0 0 1 7.2712498,10.737646 10.561558,10.561558 0 0 0 8.1637684,9.8950004 3.8178495,3.8178495 0 0 0 8.7679979,9.0579679 2.0020095,2.0020095 0 0 0 8.9897581,8.1210741 1.9004243,1.9004243 0 0 0 8.57395,6.7795442 1.6151379,1.6151379 0 0 0 7.3377786,6.3360914 1.8499158,1.8499158 0 0 0 6.1514731,6.7629425 1.5504756,1.5504756 0 0 0 5.6259785,7.8585029 0.34044759,0.34044759 0 0 1 5.2893449,8.1654498 H 2.5895545 A 0.33947379,0.33947379 0 0 1 2.2521838,7.8014956 4.4165406,4.4165406 0 0 1 2.9417755,5.5821147 4.0538176,4.0538176 0 0 1 4.7711132,4.0909253 6.5641045,6.5641045 0 0 1 7.3377852,3.6086493 5.5407534,5.5407534 0 0 1 11.024207,4.7284192 4.0026125,4.0026125 0 0 1 12.349128,7.9658361 3.6467804,3.6467804 0 0 1 11.97215,9.6677425 5.731305,5.731305 0 0 1 10.979825,11.025868 q -0.615272,0.631948 -1.3470751,1.319349 a 2.8676813,2.8676813 0 0 0 -0.8481435,1.153035 4.3040274,4.3040274 0 0 0 -0.2234306,1.151093 0.33739773,0.33739773 0 0 1 -0.336877,0.31239 z m -0.6978215,3.113826 a 1.6980452,1.6980452 0 0 1 0.5099816,-1.258332 1.8543249,1.8543249 0 0 1 1.3637515,-0.504477 1.835647,1.835647 0 0 1 1.3581251,0.504477 1.8146768,1.8146768 0 0 1 0,2.511167 A 1.8241036,1.8241036 0 0 1 7.1271425,19.838473 1.8425853,1.8425853 0 0 1 5.763391,19.328424 1.7025963,1.7025963 0 0 1 5.2534026,18.075589 Z"
     id="path1"
     style="stroke-width:0.676243" />
</svg>
